<svg width="17" height="17" viewBox="0 0 17 17" fill="none" xmlns="http://www.w3.org/2000/svg">
<path d="M12.1154 17C5.435 17 0 11.565 0 4.88456C0.00128642 3.6897 0.437511 2.53618 1.22719 1.63947C2.01686 0.742764 3.10597 0.1642 4.29108 0.0118583C4.64303 -0.0306618 4.99929 0.0418382 5.30663 0.218526C5.61397 0.395213 5.85589 0.666603 5.99624 0.992145L7.64083 4.82963C7.74751 5.07774 7.79102 5.34843 7.76746 5.61747C7.7439 5.88652 7.65402 6.14552 7.50584 6.37132L6.24797 8.29342C6.80815 9.34757 7.6729 10.2085 8.7295 10.7641L10.6203 9.50324C10.8467 9.3517 11.1075 9.25924 11.3787 9.23431C11.65 9.20937 11.9233 9.25275 12.1735 9.36048L16.0078 11.0038C16.3334 11.144 16.6049 11.3859 16.7816 11.6932C16.9584 12.0006 17.0308 12.3569 16.9881 12.7089C16.8358 13.894 16.2572 14.9831 15.3605 15.7728C14.4638 16.5625 13.3103 16.9987 12.1154 17ZM4.29181 2.00264C3.63318 2.14514 3.04316 2.50875 2.6198 3.03303C2.19644 3.55731 1.96526 4.21069 1.96467 4.88456C1.9677 7.57578 3.03813 10.1559 4.94111 12.0589C6.84409 13.9619 9.42422 15.0323 12.1154 15.0353C12.7893 15.0347 13.4427 14.8035 13.9669 14.3802C14.4912 13.9568 14.8548 13.3668 14.9974 12.7082L11.5627 11.2362L9.66092 12.5044C9.42515 12.6617 9.15253 12.7552 8.86979 12.7755C8.58704 12.7958 8.30386 12.7423 8.04801 12.6203C6.45864 11.8501 5.1728 10.5701 4.39537 8.98424C4.27276 8.72992 4.21797 8.44821 4.23633 8.16647C4.25469 7.88472 4.34557 7.61251 4.50015 7.37625L5.76597 5.4422L4.29181 2.00264Z" fill="black"/>
</svg>
