<svg width="141" height="141" viewBox="0 0 141 141" fill="none" xmlns="http://www.w3.org/2000/svg">
<g opacity="0.81">
<path d="M58.75 96.9375V44.0625L94 70.5L58.75 96.9375ZM70.5 11.75C62.7848 11.75 55.1452 13.2696 48.0173 16.2221C40.8895 19.1745 34.4129 23.502 28.9575 28.9575C17.9397 39.9752 11.75 54.9185 11.75 70.5C11.75 86.0815 17.9397 101.025 28.9575 112.043C34.4129 117.498 40.8895 121.825 48.0173 124.778C55.1452 127.73 62.7848 129.25 70.5 129.25C86.0815 129.25 101.025 123.06 112.043 112.043C123.06 101.025 129.25 86.0815 129.25 70.5C129.25 62.7848 127.73 55.1452 124.778 48.0173C121.825 40.8895 117.498 34.4129 112.043 28.9575C106.587 23.502 100.111 19.1745 92.9827 16.2221C85.8548 13.2696 78.2152 11.75 70.5 11.75Z" fill="white"/>
</g>
</svg>
